REM DIRINDEX 1\2\6,1\2\7,1\2\8,1\2\9,1\3\10,1\3\11,1\4\12,1\4\13,1\4\14,1\5\15,1\5\16,1\5\17
REM DIRNAME cjc029,folder01,folder02,folder03,folder04,folder05,folder06,folder07,folder08,folder09,folder10,folder11,folder12,folder13,folder14,folder15,folder16
TITLE ""
FILE "1400_3_sec08_0769_0784.mp3" MP3
  TRACK 01 AUDIO
    TITLE "0:"
    INDEX 01 00:00:00
  TRACK 02 AUDIO
    TITLE "17:cjc029_5972"
    INDEX 01 00:00:15
  TRACK 03 AUDIO
    TITLE "0:"
    INDEX 01 00:03:12
  TRACK 04 AUDIO
    TITLE "16:cjc029_5973"
    INDEX 01 00:03:17
  TRACK 05 AUDIO
    TITLE "0:"
    INDEX 01 00:04:48
  TRACK 06 AUDIO
    TITLE "17:cjc029_5974"
    INDEX 01 00:05:32
  TRACK 07 AUDIO
    TITLE "0:"
    INDEX 01 00:08:15
  TRACK 08 AUDIO
    TITLE "16:cjc029_5975"
    INDEX 01 00:08:23
  TRACK 09 AUDIO
    TITLE "0:"
    INDEX 01 00:09:34
  TRACK 10 AUDIO
    TITLE "17:cjc029_5976"
    INDEX 01 00:10:18
  TRACK 11 AUDIO
    TITLE "0:"
    INDEX 01 00:11:19
  TRACK 12 AUDIO
    TITLE "16:cjc029_5977"
    INDEX 01 00:11:25
  TRACK 13 AUDIO
    TITLE "0:"
    INDEX 01 00:12:42
  TRACK 14 AUDIO
    TITLE "17:cjc029_5978"
    INDEX 01 00:13:28
  TRACK 15 AUDIO
    TITLE "0:"
    INDEX 01 00:14:39
  TRACK 16 AUDIO
    TITLE "16:cjc029_5979"
    INDEX 01 00:14:49
  TRACK 17 AUDIO
    TITLE "0:"
    INDEX 01 00:15:48
  TRACK 18 AUDIO
    TITLE "17:cjc029_5980"
    INDEX 01 00:16:30
  TRACK 19 AUDIO
    TITLE "0:"
    INDEX 01 00:18:46
  TRACK 20 AUDIO
    TITLE "16:cjc029_5981"
    INDEX 01 00:18:52
  TRACK 21 AUDIO
    TITLE "0:"
    INDEX 01 00:19:73
  TRACK 22 AUDIO
    TITLE "17:cjc029_5982"
    INDEX 01 00:20:57
  TRACK 23 AUDIO
    TITLE "0:"
    INDEX 01 00:24:63
  TRACK 24 AUDIO
    TITLE "16:cjc029_5983"
    INDEX 01 00:24:69
  TRACK 25 AUDIO
    TITLE "0:"
    INDEX 01 00:26:03
  TRACK 26 AUDIO
    TITLE "17:cjc029_5984"
    INDEX 01 00:26:64
  TRACK 27 AUDIO
    TITLE "0:"
    INDEX 01 00:27:49
  TRACK 28 AUDIO
    TITLE "16:cjc029_5985"
    INDEX 01 00:27:55
  TRACK 29 AUDIO
    TITLE "0:"
    INDEX 01 00:28:51
  TRACK 30 AUDIO
    TITLE "17:cjc029_5986"
    INDEX 01 00:29:36
  TRACK 31 AUDIO
    TITLE "0:"
    INDEX 01 00:30:52
  TRACK 32 AUDIO
    TITLE "16:cjc029_5987"
    INDEX 01 00:30:57
  TRACK 33 AUDIO
    TITLE "0:"
    INDEX 01 00:32:13
  TRACK 34 AUDIO
    TITLE "17:cjc029_5988"
    INDEX 01 00:32:70
  TRACK 35 AUDIO
    TITLE "0:"
    INDEX 01 00:35:64
  TRACK 36 AUDIO
    TITLE "16:cjc029_5989"
    INDEX 01 00:35:68
  TRACK 37 AUDIO
    TITLE "0:"
    INDEX 01 00:37:30
  TRACK 38 AUDIO
    TITLE "17:cjc029_5990"
    INDEX 01 00:38:14
  TRACK 39 AUDIO
    TITLE "0:"
    INDEX 01 00:39:33
  TRACK 40 AUDIO
    TITLE "16:cjc029_5991"
    INDEX 01 00:39:41
  TRACK 41 AUDIO
    TITLE "0:"
    INDEX 01 00:40:60
  TRACK 42 AUDIO
    TITLE "17:cjc029_5992"
    INDEX 01 00:41:44
  TRACK 43 AUDIO
    TITLE "0:"
    INDEX 01 00:44:42
  TRACK 44 AUDIO
    TITLE "16:cjc029_5993"
    INDEX 01 00:44:50
  TRACK 45 AUDIO
    TITLE "0:"
    INDEX 01 00:45:67
  TRACK 46 AUDIO
    TITLE "17:cjc029_5994"
    INDEX 01 00:46:51
  TRACK 47 AUDIO
    TITLE "0:"
    INDEX 01 00:47:72
  TRACK 48 AUDIO
    TITLE "16:cjc029_5995"
    INDEX 01 00:48:02
  TRACK 49 AUDIO
    TITLE "0:"
    INDEX 01 00:49:21
  TRACK 50 AUDIO
    TITLE "17:cjc029_5996"
    INDEX 01 00:50:09
  TRACK 51 AUDIO
    TITLE "0:"
    INDEX 01 00:51:30
  TRACK 52 AUDIO
    TITLE "16:cjc029_5997"
    INDEX 01 00:51:38
  TRACK 53 AUDIO
    TITLE "0:"
    INDEX 01 00:52:39
  TRACK 54 AUDIO
    TITLE "17:cjc029_5998"
    INDEX 01 00:53:25
  TRACK 55 AUDIO
    TITLE "0:"
    INDEX 01 00:54:34
  TRACK 56 AUDIO
    TITLE "16:cjc029_5999"
    INDEX 01 00:54:40
  TRACK 57 AUDIO
    TITLE "0:"
    INDEX 01 00:55:51
  TRACK 58 AUDIO
    TITLE "17:cjc029_6000"
    INDEX 01 00:56:35
  TRACK 59 AUDIO
    TITLE "0:"
    INDEX 01 00:57:54
  TRACK 60 AUDIO
    TITLE "16:cjc029_6001"
    INDEX 01 00:57:60
  TRACK 61 AUDIO
    TITLE "0:"
    INDEX 01 00:59:00
  TRACK 62 AUDIO
    TITLE "17:cjc029_6002"
    INDEX 01 00:59:61
  TRACK 63 AUDIO
    TITLE "0:"
    INDEX 01 01:01:15
  TRACK 64 AUDIO
    TITLE "16:cjc029_6003"
    INDEX 01 01:01:21
  TRACK 65 AUDIO
    TITLE "0:"
    INDEX 01 01:02:54
